Cover ::
 
http://i.minus.com/izx6xEYnCtFQ2.png


Screen ::
 
http://i.minus.com/ibp5BczdGUgcGe.png
 
http://i.minus.com/im5vFtCzw8fKW.png
 
http://i.minus.com/iQI6JNT54ptg8.png
 
http://i.minus.com/ibdSY1ldx8UWuc.png
 
http://i.minus.com/iXS6MoMtMMPg7.png
 
http://i.minus.com/ib15CKgfXPrFsu.png
 
http://i.minus.com/ibtFU52PnX9u1h.png
 
http://i.minus.com/id1l7YvUHDxkL.jpg


General Info ::
Format                           : AVI
Format/Info                      : Audio Video Interleave
File size                        : 44.4 MiB
Duration                         : 2mn 32s
Overall bit rate                 : 2 442 Kbps


Video Info ::
ID                               : 0
Format                           : AVC
Format/Info                      : Advanced Video Codec
Format profile                   : High@L5.1
Format settings, CABAC           : Yes
Format settings, ReFrames        : 2 frames
Codec ID                         : H264
Duration                         : 10s 0ms
Bit rate                         : 2 111 Kbps
Width                            : 1 280 pixels
Height                           : 544 pixels
Display aspect ratio             : 2.35:1
Frame rate                       : 30.000 fps
Color space                      : YUV
Chroma subsampling               : 4:2:0
Bit depth                        : 8 bits
Scan type                        : Progressive
Bits/(Pixel*Frame)               : 0.101
Stream size                      : 38.4 MiB (86%)


Audio Info ::
ID                               : 1
Format                           : MPEG Audio
Format version                   : Version 1
Format profile                   : Layer 3
Codec ID                         : 55
Codec ID/Hint                    : MP3
Duration                         : 2mn 32s
Bit rate mode                    : Constant
Bit rate                         : 320 Kbps
Channel(s)                       : 2 channels
Sampling rate                    : 48.0 KHz
Compression mode                 : Lossy
Stream size                      : 5.82 MiB (13%)